<svg xmlns="http://www.w3.org/2000/svg" version="1.1" xmlns:xlink="http://www.w3.org/1999/xlink" xmlns:svgjs="http://svgjs.dev/svgjs" width="1440" height="560" preserveAspectRatio="none" viewBox="0 0 1440 560"><g mask="url(&quot;#SvgjsMask1099&quot;)" fill="none"><rect width="1440" height="560" x="0" y="0" fill="rgba(251, 243, 255, 1)"></rect><path d="M0,381.826C82.63,381.634,171.472,419.511,242.837,377.861C314.589,335.985,341.761,246.759,367.031,167.617C390.09,95.397,385.411,20.906,380.975,-54.776C376.132,-137.401,391.093,-229.492,339.943,-294.562C288.4,-360.132,197.174,-376.751,115.317,-392.734C39.198,-407.596,-38.938,-407.676,-112.426,-382.888C-184.063,-358.725,-249.245,-315.675,-293.932,-254.694C-336.705,-196.325,-337.288,-121.142,-355.547,-51.12C-376.483,29.167,-429.967,106.517,-409.061,186.812C-387.32,270.315,-321.452,341.859,-243.563,378.991C-168.758,414.653,-82.871,382.018,0,381.826" fill="#f3daff"></path><path d="M1440 865.9639999999999C1507.354 869.3109999999999 1583.6109999999999 907.999 1638.198 868.4010000000001 1693.174 828.52 1676.5720000000001 742.371 1698.83 678.204 1718.433 621.69 1769.484 573.059 1761.195 513.819 1752.901 454.546 1699.5819999999999 413.872 1656.089 372.75800000000004 1616.295 335.14 1573.713 298.687 1520.398 286.191 1468.562 274.042 1418.108 300.964 1364.987 304.529 1292.824 309.372 1202.808 258.918 1152.502 310.882 1103.165 361.845 1165.758 448.923 1157.05 519.318 1148.604 587.597 1083.219 648.069 1102.625 714.0740000000001 1122.1100000000001 780.348 1191.079 820.9549999999999 1254.069 849.3140000000001 1311.981 875.387 1376.567 862.812 1440 865.9639999999999" fill="#ffffff"></path></g><defs><mask id="SvgjsMask1099"><rect width="1440" height="560" fill="#ffffff"></rect></mask></defs></svg>